<svg xmlns="http://www.w3.org/2000/svg" viewBox="0 0 233.48 31.55"><defs><style>.cls-1{font-size:20px;fill:#333;font-family:PierSans-Medium, Pier Sans;font-weight:500;}.cls-2{letter-spacing:-0.04em;}.cls-3{letter-spacing:-0.03em;}.cls-4{letter-spacing:-0.04em;}.cls-5{letter-spacing:-0.03em;}.cls-6{letter-spacing:-0.01em;}.cls-7{letter-spacing:0em;}.cls-8{letter-spacing:-0.03em;}.cls-9{fill:#d71f26;}</style></defs><title>ansible_1</title><g id="Layer_2" data-name="Layer 2"><g id="Layer_1-2" data-name="Layer 1"><text class="cls-1" transform="translate(0 25.63)"><tspan class="cls-2">P</tspan><tspan class="cls-3" x="12.04" y="0">o</tspan><tspan class="cls-4" x="23.2" y="0">w</tspan><tspan x="38.26" y="0">e</tspan><tspan class="cls-5" x="49.44" y="0">r</tspan><tspan class="cls-6" x="56.38" y="0">e</tspan><tspan class="cls-7" x="67.42" y="0">d </tspan><tspan class="cls-8" x="86.82" y="0">b</tspan><tspan x="98.08" y="0">y</tspan></text><path class="cls-9" d="M132.29,8.39h5.11V28.76h-5.11V26.61a10,10,0,0,1-3,2.05,8.35,8.35,0,0,1-3.26.63,9.08,9.08,0,0,1-6.83-3.06,10.69,10.69,0,0,1-2.88-7.62,10.94,10.94,0,0,1,2.79-7.73,8.87,8.87,0,0,1,6.77-3,8.63,8.63,0,0,1,3.44.69,9.31,9.31,0,0,1,3,2.08Zm-5.38,4.19A5.17,5.17,0,0,0,123,14.26a6.06,6.06,0,0,0-1.56,4.3A6.1,6.1,0,0,0,123,22.9a5.47,5.47,0,0,0,7.92,0,6.12,6.12,0,0,0,1.59-4.39,6,6,0,0,0-1.59-4.31A5.31,5.31,0,0,0,126.91,12.58Z"/><path class="cls-9" d="M140.38,8.39h5.11v2.09a12.17,12.17,0,0,1,3.15-2,7.67,7.67,0,0,1,2.89-.57A7,7,0,0,1,156.68,10a7.28,7.28,0,0,1,1.77,5.32V28.76h-5V19.84a22.28,22.28,0,0,0-.33-4.84,3.36,3.36,0,0,0-1.14-1.83,3.23,3.23,0,0,0-2-.62,3.77,3.77,0,0,0-2.66,1,5.53,5.53,0,0,0-1.54,2.88,22.8,22.8,0,0,0-.23,4.13v8.17h-5.11Z"/><path class="cls-9" d="M173.68,11.24l-3.16,3.16A5.39,5.39,0,0,0,167,12.49a2.13,2.13,0,0,0-1.34.37,1.07,1.07,0,0,0-.49.9,1.09,1.09,0,0,0,.31.76,5.63,5.63,0,0,0,1.52,1l1.88.93a11.15,11.15,0,0,1,4.06,3,5.87,5.87,0,0,1,1.11,3.56,5.88,5.88,0,0,1-2,4.53,7.64,7.64,0,0,1-5.35,1.82,8.47,8.47,0,0,1-7.11-3.49l3.15-3.42a7.15,7.15,0,0,0,2.1,1.69,4.7,4.7,0,0,0,2.15.65,2.55,2.55,0,0,0,1.63-.49,1.4,1.4,0,0,0,.61-1.12c0-.79-.74-1.56-2.23-2.3l-1.72-.87q-4.93-2.49-4.94-6.23a5.41,5.41,0,0,1,1.86-4.13A6.77,6.77,0,0,1,167,7.87a8.27,8.27,0,0,1,6.7,3.37Z"/><path class="cls-9" d="M177.89,0a3.14,3.14,0,0,1,2.31,1,3.25,3.25,0,0,1,1,2.36,3.23,3.23,0,0,1-.95,2.34,3.11,3.11,0,0,1-2.28,1,3.16,3.16,0,0,1-2.33-1,3.3,3.3,0,0,1-1-2.39,3.14,3.14,0,0,1,1-2.3A3.13,3.13,0,0,1,177.89,0Zm-2.56,8.39h5.12V28.76h-5.12Z"/><path class="cls-9" d="M188,.52V10.64a9.39,9.39,0,0,1,3-2.08,8.63,8.63,0,0,1,3.44-.69,8.89,8.89,0,0,1,6.78,3A10.94,10.94,0,0,1,204,18.61a10.69,10.69,0,0,1-2.88,7.62,9.1,9.1,0,0,1-6.84,3.06,8.48,8.48,0,0,1-3.28-.63,10,10,0,0,1-3-2.05v2.15H182.9V.52Zm5.37,12.06a5.32,5.32,0,0,0-4,1.65,6,6,0,0,0-1.6,4.31,6.13,6.13,0,0,0,1.6,4.39,5.27,5.27,0,0,0,4,1.68,5.21,5.21,0,0,0,4-1.71,6.1,6.1,0,0,0,1.6-4.34,6,6,0,0,0-1.58-4.3A5.21,5.21,0,0,0,193.35,12.58Z"/><path class="cls-9" d="M205.47.52h5.12V28.76h-5.12Z"/><path class="cls-9" d="M233.46,20.06H217a5.47,5.47,0,0,0,1.9,3.45,6,6,0,0,0,3.95,1.28,6.78,6.78,0,0,0,4.92-2l4.31,2a10.14,10.14,0,0,1-3.86,3.38,12.09,12.09,0,0,1-5.34,1.1,10.51,10.51,0,0,1-7.8-3,10.24,10.24,0,0,1-3-7.57,10.6,10.6,0,0,1,3-7.74,10.05,10.05,0,0,1,7.53-3.08A10.45,10.45,0,0,1,230.46,11a11.12,11.12,0,0,1,3,8.13Zm-5.12-4a5.08,5.08,0,0,0-2-2.77,5.82,5.82,0,0,0-3.46-1.07,6.14,6.14,0,0,0-3.76,1.2A6.68,6.68,0,0,0,217.26,16Z"/></g></g></svg>