<svg xmlns="http://www.w3.org/2000/svg" viewBox="0 0 175.02 68.17"><defs><style>.cls-1{font-size:31.7px;font-family:PierSans-Black, Pier Sans;font-weight:800;}.cls-1,.cls-6{fill:#fff;}.cls-2{letter-spacing:-0.01em;}.cls-3{letter-spacing:0em;}.cls-4{letter-spacing:-0.02em;}.cls-5{letter-spacing:-0.07em;}</style></defs><g id="Layer_2" data-name="Layer 2"><g id="Layer_1-2" data-name="Layer 1"><text class="cls-1" transform="translate(44.49 27.74)">PUMP<tspan class="cls-2" x="0" y="29.78">O</tspan><tspan class="cls-3" x="27.32" y="29.78">R </tspan><tspan class="cls-4" x="60.74" y="29.78">N</tspan><tspan class="cls-5" x="85.3" y="29.78">O</tspan><tspan x="110.73" y="29.78">T</tspan></text><path class="cls-6" d="M14.24,47.59c.13-8.84,1.67-9.32,9.07-13.39l-3.29-5C11.73,34,8,34.71,7.74,47.55A1.39,1.39,0,0,0,9.14,49h3.7A1.4,1.4,0,0,0,14.24,47.59Z"/><rect class="cls-6" x="23.71" y="31.93" width="3.17" height="1.66" transform="translate(-13.91 19.5) rotate(-33.64)"/><polygon class="cls-6" points="23.25 32.54 25.89 30.78 24.22 28.27 21.58 30.03 23.25 32.54"/><rect class="cls-6" x="20.61" y="27.31" width="3.18" height="1.57" transform="translate(-11.84 16.98) rotate(-33.6)"/><path class="cls-6" d="M24.22,24.57h9.37V8.39L29.21,6.63A17.22,17.22,0,0,0,23.5,3.18l-5.42,6C26.45,10.42,28.08,19.6,24.22,24.57Z"/><path class="cls-6" d="M0,21.61a2.61,2.61,0,0,0,5.22,0c0-1.44-2.61-6.75-2.61-6.75S0,20.17,0,21.61Z"/><path class="cls-6" d="M22.23,14l-.78,5.73a1.93,1.93,0,0,0,.93,1.92l2.24-.28c.88-2.75.48-7.25-2.89-9.63a5.45,5.45,0,0,0-2.18.41c-.23.26-.44.52-.63.76l2.41,0A.93.93,0,0,1,22.23,14Z"/><path class="cls-6" d="M15.14,20.78a3.87,3.87,0,0,0,3.77,3.91c1,0,2.44,0,3.82-.1a9.92,9.92,0,0,0,1.73-2.75c-2.51.31-6.07.72-6.13.72a1.87,1.87,0,0,1-1.81-1.93l.15-4.9c0-1.3,1.27-2.9,2.15-3.9A4.19,4.19,0,0,1,21,11.29a10.65,10.65,0,0,0-3.91-1.14C14.54,12.13,15.26,12.59,15.14,20.78Z"/><path class="cls-6" d="M1.08,9.82l2.58,2.87A24.39,24.39,0,0,1,7.17,10a5.43,5.43,0,0,0,1.14,0,13.93,13.93,0,0,1,2.58-1.11l1.9.16-.16-1,2.65.6,0-.84a16.5,16.5,0,0,1,2.47.46l4.23-4.64A21.18,21.18,0,0,0,5.84,5.4,8.49,8.49,0,0,0,4.17,7.16,28.42,28.42,0,0,0,1.08,9.82Z"/><path class="cls-6" d="M23.93,25.74h8.89a17.5,17.5,0,0,1-5,6.14l-4.12-6Z"/><rect class="cls-6" x="7.56" y="51.69" width="6.86" height="6.86" rx="1.75"/></g></g></svg>