<svg xmlns="http://www.w3.org/2000/svg" viewBox="0 0 223.34 239.79"><defs><style>.cls-1,.cls-2,.cls-3,.cls-4{fill:#fff;}.cls-2{opacity:0.9;}.cls-3{opacity:0.6;}.cls-4{opacity:0.3;}</style></defs><title>pump-icon</title><g id="Layer_2" data-name="Layer 2"><g id="Layer_1-2" data-name="Layer 1"><path class="cls-1" d="M113.54,59.7,92.23,38.39h0a4,4,0,0,0-2.92-1.21,4.08,4.08,0,0,0-2.91,1.21L65,59.82a4.13,4.13,0,0,0,5.85,5.84l14.38-14.4,4.12-4.19,4.14,4.19L107.7,65.54a4.13,4.13,0,0,0,5.84-5.84Z"/><path class="cls-2" d="M86.39,61.29a4.13,4.13,0,0,0,2.91,7,4.19,4.19,0,0,0,2.94-1.21,4.13,4.13,0,0,0-5.85-5.83Z"/><path class="cls-3" d="M86.39,73.68a4.09,4.09,0,0,0-1.21,2.91,4.12,4.12,0,0,0,7,2.91,4.1,4.1,0,0,0,0-5.82,4.24,4.24,0,0,0-5.83,0Z"/><path class="cls-4" d="M86.39,86a4.12,4.12,0,0,0,2.91,7,4.26,4.26,0,0,0,2.94-1.2A4.32,4.32,0,0,0,93.43,89a4.13,4.13,0,0,0-7-2.92Z"/><path class="cls-1" d="M140.1,19H35.84a2.68,2.68,0,0,0-2.67,2.67v85.3a2.68,2.68,0,0,0,2.67,2.67H140.1a2.68,2.68,0,0,0,2.67-2.67V21.63A2.68,2.68,0,0,0,140.1,19Zm-2.66,85.3H38.51v-80h98.93Z"/><path class="cls-1" d="M223.27,193.17l-27-53.57,0-.17a31.54,31.54,0,0,1-1.34-9.11V67.39a21.48,21.48,0,0,0-6.33-15.29L175.16,38.69a2.65,2.65,0,0,0-1.88-.78,2.67,2.67,0,0,0-1.89,4.56l13.4,13.4a16.19,16.19,0,0,1,4.78,11.52v3.7h-6.82a12.16,12.16,0,0,0-12.14,12.14V97.46a12.16,12.16,0,0,0,12.14,12.14h6.82v20.72a37.08,37.08,0,0,0,1.51,10.47L218,194l0,.53a21.17,21.17,0,0,1-6.87,14.83,20.88,20.88,0,0,1-16.22,5.37c-10.63-1-19-10.66-19-21.95V168.54a12.16,12.16,0,0,0-12.15-12.15h-2.06V16.89A16.91,16.91,0,0,0,144.84,0H31.1A16.9,16.9,0,0,0,14.22,16.89V234.46H2.67a2.67,2.67,0,1,0,0,5.33H173.28a2.67,2.67,0,1,0,0-5.33H161.73V161.73h2.07a6.82,6.82,0,0,1,6.81,6.81v24.23c0,14,10.45,26,23.78,27.26a26.37,26.37,0,0,0,29-26.24A3.18,3.18,0,0,0,223.27,193.17Zm-33.7-88.91h-6.82a6.81,6.81,0,0,1-6.8-6.8V83.23a6.82,6.82,0,0,1,6.8-6.81h6.82Zm-33.18,130.2H19.55V220.84H156.39Zm0-19H19.55V16.89A11.57,11.57,0,0,1,31.1,5.34H144.84a11.56,11.56,0,0,1,11.55,11.55Z"/></g></g></svg>