<svg xmlns="http://www.w3.org/2000/svg" viewBox="0 0 483.25 519"><defs><style>.cls-1{fill:#006837;}.cls-2{fill:#2f2e33;stroke:#2f2e33;stroke-miterlimit:10;}.cls-3{font-size:35px;}.cls-3,.cls-7,.cls-9{font-family:PierSans-Black, Pier Sans;font-weight:800;}.cls-4{letter-spacing:-0.05em;}.cls-5{letter-spacing:-0.01em;}.cls-6{letter-spacing:-0.04em;}.cls-7{font-size:73.52px;}.cls-7,.cls-9{fill:#fff;}.cls-8{letter-spacing:0.01em;}.cls-9{font-size:30px;letter-spacing:-0.02em;}.cls-10{letter-spacing:0em;}</style></defs><title>ron97</title><g id="Layer_2" data-name="Layer 2"><g id="Layer_1-2" data-name="Layer 1"><rect class="cls-1" x="77.17" y="46.5" width="224" height="186"/><path class="cls-2" d="M307.7,46a4.3,4.3,0,0,0-4.3-4.29H76.87A4.3,4.3,0,0,0,72.58,46V231.33a4.3,4.3,0,0,0,4.29,4.3H303.4a4.31,4.31,0,0,0,4.3-4.3ZM299.11,227H81.17V50.28H299.11Z"/><path class="cls-2" d="M421.5,475.56a55.79,55.79,0,0,0,61.25-55.51,4,4,0,0,0-.09-.84L424.09,302.87l-.15-.5a70.21,70.21,0,0,1-3-20.23V145.42a45.13,45.13,0,0,0-13.33-32.16L378.52,84.13a4.3,4.3,0,1,0-6.08,6.08l29.13,29.12a36.66,36.66,0,0,1,10.8,26.09V155h-16.3a24.92,24.92,0,0,0-24.89,24.88v30.91a24.92,24.92,0,0,0,24.89,24.89h16.3v46.51a79,79,0,0,0,3.18,22.2l58.63,115.8-.05,1.54A47.52,47.52,0,0,1,458.7,455a46.84,46.84,0,0,1-36.38,12c-23.86-2.28-42.54-23.88-42.54-49.18V365.18a24.92,24.92,0,0,0-24.88-24.89h-6l0-6V35.69A35.23,35.23,0,0,0,313.7.5H66.58A35.23,35.23,0,0,0,31.39,35.69V509.9H4.79a4.3,4.3,0,0,0,0,8.6H375.48a4.3,4.3,0,0,0,0-8.6H348.89v-161h6a16.31,16.31,0,0,1,16.29,16.29v52.65C371.18,447.52,393.28,472.87,421.5,475.56ZM412.37,227h-16.3a16.31,16.31,0,0,1-16.29-16.29V179.83a16.3,16.3,0,0,1,16.29-16.28h16.3ZM340.29,509.9H40V477.31H340.29Zm0-41.19H40v-433A26.62,26.62,0,0,1,66.58,9.1H313.7a26.62,26.62,0,0,1,26.59,26.59Z"/><text class="cls-3" transform="translate(120.5 302.17)"><tspan class="cls-4">R</tspan><tspan class="cls-5" x="23.49" y="0">O</tspan><tspan x="53.66" y="0">N </tspan><tspan class="cls-6" x="93.03" y="0">9</tspan><tspan x="113.96" y="0">7</tspan></text><text class="cls-7" transform="translate(112.29 173.24)">2.<tspan class="cls-8" x="65.21" y="0">4</tspan><tspan x="114.33" y="0">3</tspan></text><text class="cls-9" transform="translate(111.27 113.24)">R<tspan class="cls-10" x="21.12" y="0">M</tspan></text></g></g></svg>